<svg width="20" height="23" viewBox="0 0 20 23" fill="none" xmlns="http://www.w3.org/2000/svg">
<g style="mix-blend-mode:multiply">
<path d="M6.42857 8.625H17.1429C18.7188 8.625 20 9.91426 20 11.5V20.125C20 21.7107 18.7188 23 17.1429 23H2.85714C1.27902 23 0 21.7107 0 20.125V11.5C0 9.91426 1.27902 8.625 2.85714 8.625H3.57143V6.46875C3.57143 2.89611 6.45089 0 10 0C12.567 0 14.7768 1.51342 15.808 3.69572C16.1473 4.41268 15.8438 5.26934 15.0938 5.61074C14.3795 5.95215 13.567 5.64668 13.2277 4.92793C12.6518 3.71189 11.4241 2.875 10 2.875C8.02679 2.875 6.42857 4.4841 6.42857 6.46875V8.625Z" fill="#A6A6A6"/>
</g>
</svg>
